<?xml version="1.0" encoding="UTF-8" standalone="no"?>
<!-- Created with Inkscape (http://www.inkscape.org/) -->

<svg
   xmlns:dc="http://purl.org/dc/elements/1.1/"
   xmlns:cc="http://creativecommons.org/ns#"
   xmlns:rdf="http://www.w3.org/1999/02/22-rdf-syntax-ns#"
   xmlns:svg="http://www.w3.org/2000/svg"
   xmlns="http://www.w3.org/2000/svg"
   xmlns:sodipodi="http://sodipodi.sourceforge.net/DTD/sodipodi-0.dtd"
   xmlns:inkscape="http://www.inkscape.org/namespaces/inkscape"
   width="297mm"
   height="210mm"
   viewBox="0 0 1052.3622 744.09448"
   id="svg2"
   version="1.1"
   inkscape:version="0.91 r13725"
   sodipodi:docname="ubnt-network-struct.svg">
  <defs
     id="defs4" />
  <sodipodi:namedview
     id="base"
     pagecolor="#ffffff"
     bordercolor="#666666"
     borderopacity="1.0"
     inkscape:pageopacity="0.0"
     inkscape:pageshadow="2"
     inkscape:zoom="0.7"
     inkscape:cx="671.68646"
     inkscape:cy="325.46123"
     inkscape:document-units="px"
     inkscape:current-layer="layer1"
     showgrid="false"
     inkscape:window-width="1920"
     inkscape:window-height="1005"
     inkscape:window-x="0"
     inkscape:window-y="0"
     inkscape:window-maximized="1" />
  <metadata
     id="metadata7">
    <rdf:RDF>
      <cc:Work
         rdf:about="">
        <dc:format>image/svg+xml</dc:format>
        <dc:type
           rdf:resource="http://purl.org/dc/dcmitype/StillImage" />
        <dc:title></dc:title>
      </cc:Work>
    </rdf:RDF>
  </metadata>
  <g
     inkscape:label="Layer 1"
     inkscape:groupmode="layer"
     id="layer1"
     transform="translate(0,-308.26772)">
    <rect
       style="fill:#ff0000;stroke:#ff0000;stroke-width:1.09652126;stroke-linejoin:round;stroke-miterlimit:4;stroke-dasharray:none"
       id="rect4136"
       width="41.571594"
       height="16.133701"
       x="158.22887"
       y="714.64874"
       rx="1.7637154"
       ry="1.8813466" />
    <rect
       style="fill:#ff0000;stroke:#ff0000;stroke-width:1.09652126;stroke-linejoin:round;stroke-miterlimit:4;stroke-dasharray:none"
       id="rect4138"
       width="17.237001"
       height="46.249939"
       x="312.34799"
       y="396.27704"
       rx="1.7637154"
       ry="1.8813466" />
    <rect
       style="fill:#ff0000;stroke:#ff0000;stroke-width:1.09652126;stroke-linejoin:round;stroke-miterlimit:4;stroke-dasharray:none"
       id="rect4140"
       width="16.223061"
       height="52.703423"
       x="655.06012"
       y="388.74799"
       rx="1.7637154"
       ry="1.8813466" />
    <rect
       style="fill:#ff0000;stroke:#ff0000;stroke-width:1.09652126;stroke-linejoin:round;stroke-miterlimit:4;stroke-dasharray:none"
       id="rect4142"
       width="31.432178"
       height="6.4534807"
       x="726.03595"
       y="574.8233"
       rx="1.7637154"
       ry="1.8813466" />
    <path
       style="fill:none;fill-rule:evenodd;stroke:#000000;stroke-width:0.3655071px;stroke-linecap:butt;stroke-linejoin:miter;stroke-opacity:1"
       d="m 341.75224,399.50378 c 1.09594,4.65014 1.01397,2.82408 1.01397,5.3779 0,0.35853 -0.23898,0.82207 0,1.07558 0.23897,0.25352 0.77495,-0.25351 1.01392,0 0.23902,0.25352 0,0.71705 0,1.07558 0,0.74811 -0.18333,4.98893 0,5.3779 0.21378,0.4535 0.80019,0.62207 1.01396,1.07558 0.20101,0.42646 -0.20728,3.00685 0,3.22674 0.23898,0.25352 0.77496,-0.25352 1.01393,0 0.50698,0.53779 -0.50698,2.68895 0,3.22674 0.23898,0.25352 0.77495,-0.25352 1.01396,0 0.35591,0.37754 -0.3502,4.63496 0,5.37789 0.21375,0.45352 0.80018,0.62209 1.01393,1.07559 0.1543,0.32733 0,2.74235 0,3.22674 0,0.35853 0.23898,0.82207 0,1.07559 -0.23898,0.25351 -0.77495,-0.25352 -1.01393,0 -0.23901,0.25351 0.23898,0.82206 0,1.07557 -0.23901,0.25352 -0.77498,0.25352 -1.01396,0 -0.23897,-0.25351 0.23898,-0.82206 0,-1.07557 -0.23897,-0.25352 -0.77495,0.25351 -1.01393,0 -1.35194,-1.43412 1.6899,-1.07559 -1.01396,-1.07559"
       id="path4144"
       inkscape:connector-curvature="0" />
    <path
       style="fill:none;fill-rule:evenodd;stroke:#000000;stroke-width:0.3655071px;stroke-linecap:butt;stroke-linejoin:miter;stroke-opacity:1"
       d="m 361.01716,383.37008 c 0.33795,1.43411 0.67594,2.86821 1.01393,4.30232 0.33798,0 0.77495,-0.25352 1.01392,0 0.47799,0.50703 -0.30229,1.5098 0,2.15116 0.21378,0.4535 0.80018,0.62207 1.01397,1.07558 0.15114,0.32068 -0.23898,0.82206 0,1.07557 0.23897,0.25352 0.77494,-0.25351 1.01392,0 0.47799,0.50704 -0.30229,1.50982 0,2.15117 0.21378,0.4535 0.80018,0.62208 1.01396,1.07558 0.15114,0.32067 -0.23901,0.82206 0,1.07558 0.23898,0.25352 0.77495,-0.25352 1.01393,0 0.23897,0.25352 -0.15115,0.7549 0,1.07558 0.21378,0.45351 0.80018,0.62207 1.01397,1.07558 0.15115,0.32068 -0.15119,0.7549 0,1.07558 0.42749,0.90701 1.60037,1.24415 2.02785,2.15116 0.15118,0.32068 0,0.71705 0,1.07558 0.33799,0.35852 0.80019,0.62208 1.01396,1.07558 0.15115,0.32068 -0.23897,0.82206 0,1.07558 0.23898,0.25352 0.77496,-0.25352 1.01393,0 0.47799,0.50704 -0.47795,1.64412 0,2.15116 0.23902,0.25351 0.77495,-0.25352 1.01396,0 0.47795,0.50703 -0.47798,1.64413 0,2.15116 2.70383,0 -0.33798,-0.35853 1.01393,1.07558 0.23898,0.25351 0.77495,-0.25352 1.01396,0 0.23898,0.25351 0,0.71705 0,1.07558 0,0.74811 -0.18336,4.98893 0,5.3779 0.21375,0.45351 0.80018,0.62207 1.01393,1.07558 0.13329,0.28281 0,3.73988 0,4.30231 0,0.35854 0.23898,0.82207 0,1.07559 -0.23897,0.25352 -0.77495,-0.25352 -1.01393,0 -0.23901,0.25352 0.23898,0.82207 0,1.07558 -0.23901,0.25352 -0.77498,-0.25351 -1.01396,0 -0.47799,0.50703 0.47799,1.64412 0,2.15116 -0.23897,0.25352 -0.77495,-0.25352 -1.01393,0 -0.23901,0.25352 0.23898,0.82207 0,1.07558 -0.23901,0.25352 -0.77494,-0.25351 -1.01396,0 -2.09786,2.22542 3.20584,-0.087 -1.01393,2.15116 -0.30228,0.16034 -0.77494,-0.25352 -1.01396,0 -0.23897,0.25352 0.23902,0.82207 0,1.07559 -0.23897,0.25351 -0.77495,-0.25352 -1.01392,0 -0.23898,0.25351 0.23897,0.82206 0,1.07557 -0.23898,0.25352 -0.77495,-0.25351 -1.01393,0 0,2.86821 0.33795,-0.35853 -1.01397,1.07558 -0.23898,0.25352 0.23897,0.82207 0,1.07559 -0.47799,0.50703 -1.5499,-0.50704 -2.02789,0 -0.23898,0.25351 0.23901,0.82205 0,1.07557 -0.23898,0.25352 -0.77495,-0.25352 -1.01392,0 -0.23898,0.25352 0.23897,0.82207 0,1.07558 -0.23898,0.25352 -0.67598,0 -1.01397,0 -0.33795,0 -0.67594,0 -1.01392,0"
       id="path4146"
       inkscape:connector-curvature="0" />
    <path
       style="fill:none;fill-rule:evenodd;stroke:#000000;stroke-width:0.3655071px;stroke-linecap:butt;stroke-linejoin:miter;stroke-opacity:1"
       d="m 378.25416,377.99218 c -1.55746,3.68225 2.16048,3.50805 3.04182,5.3779 0.15114,0.32067 -0.15115,0.7549 0,1.07558 0.21378,0.4535 0.80018,0.62207 1.01396,1.07558 0.15115,0.32067 -0.23901,0.82206 0,1.07558 0.23898,0.25352 0.77495,-0.25352 1.01393,0 0.23898,0.25352 0,0.71705 0,1.07558 0.33799,0 0.77494,-0.25352 1.01392,0 0.23901,0.25351 -0.23898,0.82206 0,1.07558 0.23901,0.25351 0.77499,-0.25352 1.01396,0 0.47799,0.50703 -0.47798,1.64413 0,2.15116 0.23898,0.25351 0.77495,-0.25352 1.01393,0 0.23901,0.25351 -0.23898,0.82206 0,1.07557 0.23901,0.25352 0.77495,-0.25351 1.01396,0 0.47795,0.50704 -0.47798,1.64414 0,2.15117 0.23897,0.25352 0.77495,-0.25352 1.01393,0 0.50698,0.53779 -0.50699,2.68895 0,3.22674 0.23897,0.25351 0.77495,-0.25352 1.01396,0 0.24398,0.25882 -0.24402,4.0435 0,4.30232 0.23897,0.25352 0.77495,-0.25352 1.01393,0 0.50697,0.53779 -0.50699,2.68895 0,3.22674 0.23897,0.25352 0.77494,-0.25352 1.01392,0 0.47799,0.50704 -0.47795,1.64412 0,2.15116 0.23901,0.25351 0.77499,-0.25352 1.01396,0 0.31396,0.33305 -0.31396,5.04485 0,5.3779 0.23898,0.25351 0.77495,-0.25352 1.01393,0 0.23901,0.25351 0,0.71705 0,1.07558 0,0.35853 0,0.71705 0,1.07558 0,1.79263 0,3.58527 0,5.3779 0,0.35853 0.23901,0.82207 0,1.07558 -1.35191,1.43411 -1.01393,-1.79264 -1.01393,1.07557 0,0.35854 0,0.71706 0,1.07559 0,0.35853 0.23898,0.82207 0,1.07558 -0.23897,0.25352 -0.77495,-0.25351 -1.01396,0 -0.47795,0.50703 0.30232,1.50981 0,2.15116 -0.21374,0.4535 -0.80018,0.62207 -1.01392,1.07558 -0.30229,0.64135 0.47798,1.64412 0,2.15116 -0.23898,0.25352 -0.77496,-0.25352 -1.01393,0 -0.47799,0.50704 0.47795,1.64413 0,2.15116 -0.23901,0.25352 -0.77499,-0.25351 -1.01396,0 -0.47799,0.50703 0.47799,1.64413 0,2.15117 -0.23898,0.25351 -0.67594,0 -1.01393,0 0,0.71704 0.21375,1.4709 0,2.15115 -0.15114,0.48102 -0.80018,0.62208 -1.01396,1.07558 -0.15115,0.32068 0.23901,0.82206 0,1.07558 -0.23898,0.25352 -0.77495,-0.25352 -1.01393,0 -0.23897,0.25352 0.23898,0.82207 0,1.07559 -0.23897,0.25351 -0.77495,-0.25352 -1.01396,0 -0.23898,0.25351 0.23901,0.82206 0,1.07557 -0.23898,0.25352 -0.77494,-0.25351 -1.01392,0 -0.23898,0.25352 0.23898,0.82206 0,1.07558 -0.23898,0.25352 -0.77495,-0.25352 -1.01393,0 -2.09791,2.22542 3.20584,-0.087 -1.01396,2.15116 -0.30229,0.16034 -0.77495,-0.25351 -1.01393,0 -0.23901,0.25352 0.23898,0.82206 0,1.07558 -0.47798,0.50704 -1.5499,-0.50704 -2.02789,0 -0.23897,0.25352 0.23898,0.82207 0,1.07559 -0.23897,0.25351 -0.77494,-0.25352 -1.01396,0 -0.23897,0.25351 0.23902,0.82206 0,1.07557 -0.47795,0.50703 -1.5499,-0.50703 -2.02785,0 -0.23901,0.25352 0.23898,0.82206 0,1.07558 -0.50698,0.5378 -2.53487,-0.53779 -3.04185,0 -0.23897,0.25352 0.23902,0.82207 0,1.07559 -0.23897,0.25351 -0.67594,0 -1.01393,0 -2.36587,0 -4.73172,0 -7.09759,0"
       id="path4148"
       inkscape:connector-curvature="0" />
    <path
       style="fill:none;fill-rule:evenodd;stroke:#000000;stroke-width:0.3655071px;stroke-linecap:butt;stroke-linejoin:miter;stroke-opacity:1"
       d="m 627.6837,399.50378 c -0.67598,1.4341 -1.35192,2.86821 -2.02789,4.30232 -0.33799,0 -0.77495,-0.25352 -1.01393,0 -0.47798,0.50703 0.47795,1.64413 0,2.15116 -0.23901,0.25352 -0.77498,-0.25351 -1.01396,0 -0.23897,0.25352 0.15115,0.75491 0,1.07558 -0.21375,0.45351 -0.80018,0.62207 -1.01393,1.07558 -0.15114,0.32067 0.23898,0.82207 0,1.07558 -0.239,0.25352 -0.77494,-0.25351 -1.01396,0 -0.23897,0.25352 0,0.71705 0,1.07558 -0.33798,0 -0.77495,-0.25352 -1.01392,0 -0.47799,0.50703 0.47798,1.64413 0,2.15116 -0.23901,0.25351 -0.77495,-0.25352 -1.01397,0 -0.47795,0.50703 0.47799,1.64413 0,2.15116 -0.23897,0.25352 -0.77494,-0.25352 -1.01392,0 -0.23897,0.25352 0,0.71706 0,1.07558 0,1.79264 0,3.58526 0,5.3779 0,0.39499 -0.0408,4.25904 0,4.30231 0.23898,0.25352 0.77495,-0.25351 1.01392,0 0.23902,0.25352 -0.23897,0.82207 0,1.07559 0.23902,0.25352 0.77496,-0.25352 1.01397,0 0.23897,0.25352 -0.15114,0.7549 0,1.07558 0.21374,0.4535 0.80018,0.62208 1.01392,1.07558 0.15115,0.32068 -0.23897,0.82206 0,1.07558 0.23902,0.25352 0.77496,-0.25352 1.01396,0 0,2.86821 -0.33799,-0.35853 1.01393,1.07559 0.23898,0.25351 -0.23897,0.82206 0,1.07557 0.23898,0.25352 0.77495,-0.25351 1.01396,0 0.23898,0.25352 -0.23901,0.82206 0,1.07558 0.23898,0.25352 0.77495,-0.25352 1.01393,0 0.23898,0.25352 -0.23898,0.82207 0,1.07559 0.23898,0.25351 0.77494,-0.25352 1.01392,0 1.35196,1.4341 -1.68989,1.07557 1.01397,1.07557"
       id="path4150"
       inkscape:connector-curvature="0" />
    <path
       style="fill:none;fill-rule:evenodd;stroke:#000000;stroke-width:0.3655071px;stroke-linecap:butt;stroke-linejoin:miter;stroke-opacity:1"
       d="m 604.36304,397.35262 c -1.35191,0.35852 -2.70383,0.71705 -4.05577,1.07558 0,0.35853 0.23901,0.82206 0,1.07558 -0.23898,0.25352 -0.77496,-0.25352 -1.01393,0 -0.23901,0.25352 0.23897,0.82206 0,1.07558 -0.23901,0.25351 -0.77495,-0.25352 -1.01396,0 -0.23898,0.25351 0.23901,0.82206 0,1.07558 -0.23898,0.25352 -0.77495,-0.25352 -1.01393,0 -0.23897,0.25352 0.23898,0.82207 0,1.07558 -0.23897,0.25352 -0.77495,-0.25351 -1.01392,0 -0.47799,0.50703 0.30228,1.5098 0,2.15116 -0.21378,0.4535 -0.80019,0.62207 -1.01396,1.07558 -0.13106,0.27809 0,5.6911 0,6.45348 0,0.35852 0.23897,0.82206 0,1.07558 -0.23898,0.25351 -0.77496,-0.25352 -1.01393,0 -0.23902,0.25351 0,0.71705 0,1.07558 0,1.79263 0,3.58527 0,5.3779 0,2.15115 0,4.30232 0,6.45348 0,0.35853 -0.23902,0.82207 0,1.07558 0.23897,0.25352 0.77495,-0.25351 1.01393,0 0.47798,0.50704 -0.47799,1.64412 0,2.15116 0.23897,0.25352 0.77494,-0.25352 1.01396,0 2.09787,2.22541 -3.20584,-0.087 1.01392,2.15116 0.30229,0.16034 0.77495,-0.25351 1.01393,0 0.23901,0.25352 -0.23898,0.82206 0,1.07558 0.23901,0.25352 0.77495,-0.25352 1.01396,0 0.23897,0.25352 -0.23901,0.82207 0,1.07559 0.23897,0.25351 0.77495,-0.25352 1.01393,0 0.23901,0.25351 -0.23898,0.82205 0,1.07557 0.0326,0.0346 2.79591,0 3.04185,0"
       id="path4152"
       inkscape:connector-curvature="0" />
    <path
       style="fill:none;fill-rule:evenodd;stroke:#000000;stroke-width:0.3655071px;stroke-linecap:butt;stroke-linejoin:miter;stroke-opacity:1"
       d="m 591.18179,380.14334 c 0.51816,6.49242 -3.85108,-0.2171 -5.0697,1.07558 -0.23897,0.25351 0.23901,0.82206 0,1.07558 -0.50694,0.53779 -2.53483,-0.53779 -3.04182,0 -0.23897,0.25351 0.23898,0.82206 0,1.07558 -0.47798,0.50703 -1.42327,-0.32068 -2.02788,0 -0.42753,0.22675 -0.58644,0.84883 -1.01393,1.07558 -0.60461,0.32068 -1.5499,-0.50704 -2.02789,0 -0.23901,0.25351 0.23898,0.82206 0,1.07558 -0.23901,0.25351 -0.71163,-0.16034 -1.01395,0 -0.4275,0.22675 -0.58641,0.84882 -1.01394,1.07558 -0.30228,0.16034 -0.77494,-0.25352 -1.01392,0 -0.23901,0.25352 0.23898,0.82206 0,1.07558 -0.47799,0.50703 -1.54993,-0.50703 -2.02788,0 -0.23902,0.25351 0.23897,0.82206 0,1.07558 -0.478,0.50703 -1.5499,-0.50703 -2.02789,0 -0.23902,0.25351 0.23897,0.82206 0,1.07558 -0.47799,0.50703 -1.5499,-0.50704 -2.02789,0 -0.23898,0.25351 0.23897,0.82206 0,1.07558 -0.23898,0.25351 -0.71164,-0.16034 -1.01392,0 -0.42753,0.22675 -0.58645,0.84883 -1.01397,1.07557 -0.30228,0.16035 -0.77495,-0.25351 -1.01392,0 -0.23902,0.25352 0.23897,0.82207 0,1.07559 -0.23902,0.25351 -0.77496,-0.25352 -1.01397,0 -0.23897,0.25351 0.23901,0.82206 0,1.07558 -2.09787,2.22541 0.082,-3.40073 -2.02788,1.07558 -0.15115,0.32067 0,0.71706 0,1.07558 -0.33796,0.35853 -0.80018,0.62208 -1.01393,1.07558 -0.30228,0.64135 0.47799,1.64413 0,2.15116 -0.23898,0.25352 -0.77495,-0.25352 -1.01393,0 -0.50698,0.53779 0.50695,2.68895 0,3.22674 -0.23901,0.25352 -0.77498,-0.25351 -1.01396,0 -0.23898,0.25352 0,0.71705 0,1.07558 0,2.50968 0,5.01937 0,7.52906 0,0.35853 0,0.71706 0,1.07558 0,0.35852 -0.23898,0.82206 0,1.07558 0.23898,0.25351 0.77495,-0.25352 1.01396,0 0.50695,0.53779 -0.50698,2.68895 0,3.22674 0.23898,0.25352 0.77495,-0.25352 1.01393,0 0.47799,0.50704 -0.30228,1.50981 0,2.15116 0.21375,0.45351 0.80018,0.62207 1.01393,1.07558 0.15117,0.32068 -0.23898,0.82207 0,1.07558 0.239,0.25352 0.77494,-0.25351 1.01396,0 0.47799,0.50703 -0.47799,1.64412 0,2.15116 0.23897,0.25352 0.77495,-0.25352 1.01392,0 0.47799,0.50704 -0.47795,1.64412 0,2.15115 0.23901,0.25352 0.77495,-0.25351 1.01397,0 0.23897,0.25352 -0.15115,0.75491 0,1.07559 0.21374,0.4535 0.80018,0.62207 1.01392,1.07558 0.15114,0.32068 -0.23898,0.82206 0,1.07558 0.23897,0.25352 0.77495,-0.25352 1.01397,0 0.23897,0.25352 -0.23902,0.82206 0,1.07558 0.23897,0.25352 0.77494,-0.25352 1.01392,0 0.23897,0.25352 -0.23898,0.82207 0,1.07559 0.23897,0.25351 0.77495,-0.25352 1.01393,0 0.239,0.25351 -0.23898,0.82206 0,1.07557 0.239,0.25352 0.77494,-0.25351 1.01396,0 0.10834,0.11494 -0.10778,2.03686 0,2.15117 1.35191,1.4341 1.01392,-1.79265 1.01392,1.07557"
       id="path4154"
       inkscape:connector-curvature="0" />
    <path
       style="fill:none;fill-rule:evenodd;stroke:#000000;stroke-width:0.3655071px;stroke-linecap:butt;stroke-linejoin:miter;stroke-opacity:1"
       d="m 318.43163,439.30025 c 0,1.43409 0,2.86821 0,4.30231 0,2.52243 -0.23902,-0.50703 1.01392,2.15117 0.18333,0.38896 0,4.62978 0,5.37789 0,0.35853 -0.23897,0.82207 0,1.07558 0.23898,0.25352 0.77495,-0.25351 1.01393,0 0.23901,0.25352 0,0.71706 0,1.07558 0,0.35853 0,0.71705 0,1.07558 0,2.50969 0,5.01937 0,7.52907 0,0.35852 -0.23898,0.82206 0,1.07557 0.23901,0.25352 0.77498,-0.25351 1.01396,0 0.23897,0.25352 0,0.71706 0,1.07559 0,2.15115 0,4.30232 0,6.45347 0,0.35853 -0.23898,0.82207 0,1.07559 0.23897,0.25351 0.77495,-0.25352 1.01393,0 0.23901,0.25351 0,0.71705 0,1.07557 0,0.35853 0,0.71706 0,1.07558 0,3.22674 0,6.45348 0,9.68022 0,6.45348 0,12.90696 0,19.36044 0,1.79264 0,3.58527 0,5.3779 0,0.35853 0,0.71706 0,1.07558 0,0.35853 0.15114,0.75491 0,1.07559 -0.21375,0.4535 -0.80018,0.62207 -1.01393,1.07557 -0.15114,0.32069 0,0.71706 0,1.07558 0,0.35853 0,0.71706 0,1.07559 0,3.58527 0,7.17053 0,10.7558 0,0.56244 0.13329,4.0195 0,4.30232 -0.21378,0.4535 -0.80018,0.62207 -1.01396,1.07558 -0.13105,0.27809 0,5.6911 0,6.45348 0,0.35853 0,0.71705 0,1.07558 0,0.35853 0.23901,0.82207 0,1.07558 -0.23898,0.25352 -0.77495,-0.25351 -1.01393,0 -0.0408,0.0433 0,3.90733 0,4.30232 0,0.96127 0.16154,5.03514 0,5.37791 -0.21374,0.45349 -0.80017,0.62207 -1.01392,1.07557 -0.18337,0.38896 0,4.6298 0,5.37791 0,0.35852 0.23897,0.82205 0,1.07557 -0.23902,0.25351 -0.77498,-0.25352 -1.01396,0 -0.23898,0.25351 0,0.71705 0,1.07558 0,0.35853 0,0.71706 0,1.07558 0,1.79264 0,3.58527 0,5.3779 0,0.35853 0,0.71706 0,1.07558 0,0.35853 0.15114,0.75491 0,1.07558 -0.21375,0.45351 -0.80018,0.62208 -1.01393,1.07558 -0.18333,0.38897 0,4.62979 0,5.3779 0,0.35853 0.23898,0.82207 0,1.07558 -0.23901,0.25352 -0.77495,-0.25351 -1.01396,0 -0.35591,0.37756 0.3502,4.63497 0,5.3779 -0.21375,0.45351 -0.80018,0.62208 -1.01393,1.07558 -0.13109,0.27809 0,5.69111 0,6.45348 0,0.35853 0.23898,0.82207 0,1.07558 -0.23898,0.25352 -0.77494,-0.25351 -1.01396,0 -0.24398,0.25882 0.24402,4.04351 0,4.30232 -0.23897,0.25352 -0.77495,-0.25351 -1.01393,0 -0.50697,0.53779 0.50699,2.68896 0,3.22674 -0.23897,0.25352 -0.77494,-0.25351 -1.01392,0 -0.24402,0.25882 0.24398,4.04351 0,4.30232 -0.23901,0.25352 -0.77498,-0.25351 -1.01396,0 -0.50698,0.53779 0.50698,2.68895 0,3.22674 -0.23897,0.25352 -0.86278,-0.32067 -1.01393,0 -0.90689,0.84848 0.45343,2.26471 0,3.22674 -0.21377,0.45351 -0.80018,0.62208 -1.01396,1.07559 -0.30229,0.64135 0.30232,1.5098 0,2.15115 -0.21374,0.45352 -0.80018,0.62208 -1.01393,1.07559 -0.201,0.42646 0.20729,3.00685 0,3.22674 -0.23897,0.25352 -0.77494,-0.25352 -1.01396,0 -0.20728,0.21988 0.20105,2.80028 0,3.22674 -0.21374,0.4535 -0.80018,0.62207 -1.01393,1.07557 -0.30228,0.64136 0.47799,1.64413 0,2.15117 -0.23897,0.25351 -0.77494,-0.25352 -1.01392,0 -0.47799,0.50703 0.21374,1.4709 0,2.15116 -0.23901,0.76055 -0.77499,1.3906 -1.01396,2.15115 -0.10689,0.34014 0.15114,0.75491 0,1.07559 -0.21374,0.4535 -0.80018,0.62207 -1.01393,1.07557 -0.30232,0.64136 0.60458,1.83049 0,2.15117 -0.60461,0.32068 -1.42327,-0.32068 -2.02789,0 -0.6046,0.32068 0.47799,1.64412 0,2.15116 -0.23897,0.25351 -0.77494,-0.25352 -1.01395,0 -0.23898,0.25351 0.15117,0.7549 0,1.07558 -0.42749,0.90701 -1.60037,1.24415 -2.02786,2.15115 -0.15118,0.32068 0,0.71706 0,1.07559 -0.33798,0.35853 -0.80018,0.62207 -1.01396,1.07558 -0.15114,0.32068 0.23897,0.82206 0,1.07557 -0.23898,0.25352 -0.77495,-0.25351 -1.01392,0 -0.47799,0.50704 0.47795,1.64414 0,2.15117 -0.23902,0.25351 -0.77496,-0.25352 -1.01396,0 -0.47796,0.50703 0.30232,1.50981 0,2.15116 -0.21375,0.4535 -0.80019,0.62208 -1.01393,1.07558 -0.30229,0.64135 0.47799,1.64413 0,2.15116 -0.23898,0.25352 -0.77495,-0.25351 -1.01396,0 -0.47795,0.50703 0.30232,1.50981 0,2.15116 -0.21375,0.45351 -0.80019,0.62207 -1.01393,1.07558 -0.30229,0.64135 0.47799,1.64412 0,2.15116 -0.23898,0.25352 -0.77495,-0.25352 -1.01392,0 -0.47799,0.50703 0.47795,1.64412 0,2.15115 -0.23902,0.25352 -0.775,-0.25351 -1.01397,0 -0.47798,0.50704 0.47799,1.64414 0,2.15117 -0.23898,0.25351 -0.77495,-0.25352 -1.01392,0 -0.47799,0.50703 0.30228,1.5098 0,2.15116 -0.21379,0.4535 -0.80019,0.62207 -1.01397,1.07558 -0.15114,0.32068 0.15114,0.75491 0,1.07558 -3.3628,3.56725 0.47799,-1.01407 -1.01392,2.15116 -0.21378,0.4535 -0.80019,0.62208 -1.01396,1.07558 -0.15115,0.32067 0.15117,0.7549 0,1.07558 -0.21375,0.4535 -0.80018,0.62208 -1.01393,1.07558 -0.15114,0.32068 0,0.71705 0,1.07558 -0.33799,0.35853 -0.80018,0.62207 -1.01392,1.07558 -0.15119,0.32068 0.23897,0.82207 0,1.07558 -0.23902,0.25352 -0.77499,-0.25351 -1.01397,0 -0.47798,0.50703 0.47799,1.64413 0,2.15116 -0.23898,0.25352 -0.77494,-0.25351 -1.01392,0 -0.23901,0.25352 0.15114,0.7549 0,1.07558 -0.21379,0.45351 -0.80018,0.62208 -1.01397,1.07558 -0.15114,0.32067 0.23902,0.82207 0,1.07558 -0.23897,0.25352 -0.77494,-0.25351 -1.01392,0 -0.47799,0.50703 0.47799,1.64412 0,2.15116 -0.23898,0.25352 -0.77495,-0.25352 -1.01396,0 -0.23897,0.25352 0.23901,0.82207 0,1.07558 -0.23897,0.25352 -0.77495,-0.25351 -1.01393,0 -0.47799,0.50703 0.47799,1.64412 0,2.15116 -0.23897,0.25352 -0.77495,-0.25352 -1.01392,0 -0.23901,0.25352 0.23897,0.82207 0,1.07558 -0.23901,0.25352 -0.77499,-0.25351 -1.01397,0 -0.23897,0.25352 0.23898,0.82206 0,1.07558 -0.23897,0.25352 -0.77494,-0.25352 -1.01392,0 -0.23901,0.25352 0.23898,0.82206 0,1.07558 -0.23901,0.25352 -0.77495,-0.25352 -1.01397,0 0,2.86822 0.33799,-0.35853 -1.01392,1.07558 -0.23897,0.25352 0.23898,0.82206 0,1.07558 -0.23897,0.25352 -0.77495,-0.25352 -1.01396,0 -0.47795,0.50704 0.47798,1.64413 0,2.15116 -0.23897,0.25352 -0.77495,-0.25351 -1.01393,0 -0.23897,0.25352 0.23898,0.82207 0,1.07558 -0.23897,0.25352 -0.77495,-0.25351 -1.01392,0 -0.23901,0.25352 0.15114,0.7549 0,1.07559 -0.21378,0.45349 -0.80018,0.62207 -1.01397,1.07557 -0.15114,0.32068 0.23898,0.82207 0,1.07558 -0.23897,0.25352 -0.77494,-0.25351 -1.01392,0 -0.23901,0.25352 0.23898,0.82207 0,1.07559 -0.23901,0.25351 -0.71164,-0.16035 -1.01397,0 -0.42748,0.22674 -0.58639,0.84882 -1.01392,1.07557 -0.30229,0.16034 -0.77495,-0.25351 -1.01396,0 -0.23898,0.25352 0.23901,0.82207 0,1.07558 -0.23898,0.25352 -0.77495,-0.25351 -1.01392,0 -0.23898,0.25352 0.23897,0.82207 0,1.07558 -0.23898,0.25352 -0.77496,-0.25351 -1.01394,0 -0.239,0.25352 0.23898,0.82207 0,1.07558 -0.239,0.25352 -0.71167,-0.16033 -1.01395,0 -0.42753,0.22675 -0.58644,0.84883 -1.01393,1.07558 -0.30232,0.16034 -0.71164,-0.16034 -1.01396,0 -0.42749,0.22676 -0.5864,0.84883 -1.01392,1.07558 -0.3023,0.16034 -0.77496,-0.25351 -1.01397,0 -0.23898,0.25352 0.23901,0.82207 0,1.07558 -0.23898,0.25352 -0.77495,-0.25351 -1.01392,0 -0.23898,0.25352 0.23897,0.82206 0,1.07558 -0.47799,0.50704 -1.5499,-0.50703 -2.02789,0 -0.23898,0.25352 0.23897,0.82207 0,1.07558 -0.23898,0.25352 -0.71164,-0.16033 -1.01393,0 -0.42752,0.22675 -0.58644,0.84884 -1.01396,1.07558 -0.30228,0.16034 -0.77495,-0.25351 -1.01392,0 -0.23898,0.25352 0.23897,0.82207 0,1.07559 -0.47799,0.50703 -1.54991,-0.50704 -2.02789,0 -0.23898,0.25351 0.23898,0.82206 0,1.07557 -0.23898,0.25352 -0.77495,-0.25351 -1.01393,0 -0.23901,0.25352 0.23898,0.82207 0,1.07558 -0.47799,0.50704 -1.54994,-0.50703 -2.02789,0 -0.239,0.25352 0.23898,0.82207 0,1.07559 -0.239,0.25351 -0.71164,-0.16035 -1.01396,0 -0.42748,0.22675 -0.5864,0.84883 -1.01392,1.07557 -0.30229,0.16034 -0.77495,-0.25351 -1.01397,0 -0.23897,0.25352 0.23902,0.82207 0,1.07558 -0.47795,0.50704 -1.5499,-0.50703 -2.02785,0 -0.23901,0.25352 0.23898,0.82207 0,1.07558 -0.47799,0.50703 -1.54994,-0.50703 -2.02789,0 -0.239,0.25352 0.23898,0.82207 0,1.07558 -0.239,0.25352 -0.77494,-0.25351 -1.01396,0 -0.23897,0.25352 0.23902,0.82207 0,1.07558 -0.23897,0.25352 -0.77495,-0.25351 -1.01392,0 -0.23898,0.25352 0.23897,0.82207 0,1.07558 -0.23898,0.25352 -0.77495,-0.25351 -1.01397,0 -0.23897,0.25352 0.23902,0.82207 0,1.07558 -0.23897,0.25352 -0.77494,-0.25351 -1.01392,0 -0.23897,0.25352 0.23898,0.82207 0,1.07558 -0.23897,0.25352 -0.77495,-0.25351 -1.01393,0 -0.23901,0.25352 0.23898,0.82207 0,1.07559 -0.23901,0.25352 -0.77498,-0.25352 -1.01396,0 -0.23897,0.25352 0.23898,0.82206 0,1.07557 -0.23897,0.25352 -0.77495,-0.25351 -1.01393,0 -0.239,0.25352 0.23898,0.82207 0,1.07558 -0.239,0.25352 -0.67597,0 -1.01395,0 0,0.35853 0.23901,0.82207 0,1.07559 -0.23898,0.25352 -0.77496,-0.25352 -1.01393,0 -0.23898,0.25352 0.23897,0.82206 0,1.07557 -0.23898,0.25352 -0.77495,-0.25351 -1.01396,0 -0.23898,0.25352 0.23901,0.82207 0,1.07558 -0.23898,0.25352 -0.77495,-0.25351 -1.01393,0 -0.47798,0.50704 0.47799,1.64413 0,2.15116 -0.23897,0.25352 -0.77495,-0.25351 -1.01392,0 -0.478,0.50704 0.47795,1.64414 0,2.15117 -0.23902,0.25351 -0.77499,-0.25352 -1.01396,0 -0.23898,0.25351 0.23897,0.82206 0,1.07557 -0.23898,0.25352 -0.77496,-0.25351 -1.01393,0 -0.23902,0.25352 0.23897,0.82207 0,1.07559 -0.23902,0.25352 -0.77495,-0.25352 -1.01396,0 -0.23898,0.25352 0.23901,0.82206 0,1.07558 -0.47795,0.50703 -1.5499,-0.50703 -2.02789,0 -0.23898,0.25351 0.23901,0.82206 0,1.07557 -0.23898,0.25352 -0.71164,-0.16033 -1.01393,0 -0.85505,0.45352 -1.17284,1.69766 -2.02788,2.15116 -0.30229,0.16034 -0.77496,-0.25351 -1.01393,0 -0.23902,0.25352 0.23897,0.82207 0,1.07558 -0.23902,0.25352 -0.71164,-0.16033 -1.01396,0 -0.42749,0.22676 -0.58641,0.84883 -1.01393,1.07559 -0.30228,0.16033 -0.77495,-0.25352 -1.01396,0 -0.23898,0.25352 0.23901,0.82206 0,1.07556 -0.47795,0.50704 -1.5499,-0.50702 -2.02785,0 -0.23902,0.25355 0.23898,0.82207 0,1.07561 -0.47799,0.50704 -1.54994,-0.50705 -2.02789,0 -0.23901,0.2535 0.23898,0.82205 0,1.07556 -0.50698,0.5378 -2.53487,-0.53776 -3.04185,0 -0.23897,0.25354 0.23901,0.82206 0,1.0756 -0.47795,0.50701 -1.5499,-0.50704 -2.02785,0 -0.23901,0.2535 0.23898,0.82206 0,1.07556 -0.50698,0.53781 -2.53487,-0.53779 -3.04185,0 -0.23897,0.25351 0.23901,0.82207 0,1.07561 -0.47795,0.507 -1.5499,-0.50705 -2.02789,0 -0.23897,0.2535 0.23901,0.82205 0,1.07556 -0.50694,0.53781 -2.53483,-0.5378 -3.04181,0 -0.23898,0.25351 0.23897,0.82206 0,1.07557 -0.50698,0.5378 -2.53483,-0.53776 -3.04181,0 -0.23898,0.25353 0.23897,0.82205 0,1.07559 -0.23898,0.25351 -0.67598,0 -1.01396,0 -1.85255,0 -1.01393,-0.25798 -1.01393,-2.15116 0,-2.86823 0.33798,0.35853 -1.01393,-1.07556 -0.23901,-0.25354 0.23898,-0.8221 0,-1.07561 -0.23901,-0.2535 -0.77499,0.25351 -1.01396,0 -0.47798,-0.50704 0.47799,-1.64411 0,-2.15116 -0.23898,-0.25351 -0.77495,0.25354 -1.01392,0 -0.47799,-0.507 0.47795,-1.64413 0,-2.15117 -0.23902,-0.2535 -0.77496,0.25355 -1.01397,0 -0.23897,-0.2535 0.23901,-0.82204 0,-1.07556 -0.23897,-0.25352 -0.77495,0.25352 -1.01392,0 -0.47799,-0.50704 0.47799,-1.64414 0,-2.15117 -0.23898,-0.25351 -0.77496,0.25352 -1.01396,0 -1.00024,-1.06103 2.07764,-2.15116 -1.01393,-2.15116"
       id="path4156"
       inkscape:connector-curvature="0" />
    <path
       style="fill:none;fill-rule:evenodd;stroke:#000000;stroke-width:0.3655071px;stroke-linecap:butt;stroke-linejoin:miter;stroke-opacity:1"
       d="m 190.67503,720.02664 c -1.18044,-8.41698 3.7827,-0.78592 5.0697,-2.15115 0.50695,-0.53779 -0.50698,-2.68896 0,-3.22674 0.23898,-0.25352 0.77495,0.25352 1.01393,0 0.23897,-0.25352 0,-0.71706 0,-1.07559 0,-0.50713 0.046,-5.32915 0,-5.3779 -0.23898,-0.25351 -0.77495,0.25352 -1.01393,0 -0.24398,-0.25881 0.24398,-4.0435 0,-4.30232 -0.23901,-0.25351 -0.77495,0.25352 -1.01396,0 -0.23897,-0.25351 0.23901,-0.82206 0,-1.07558 -0.23897,-0.25351 -0.77495,0.25352 -1.01392,0 -0.478,-0.50703 0.47799,-1.64412 0,-2.15116 -0.23898,-0.25351 -0.77496,0.25352 -1.01396,0 -0.47796,-0.50703 0.47798,-1.64412 0,-2.15116 -0.23898,-0.25352 -0.77496,0.25352 -1.01393,0 -0.47799,-0.50703 0.47799,-1.64413 0,-2.15116 -0.23898,-0.25351 -0.77495,0.25352 -1.01393,0 -0.23901,-0.25351 0,-0.71705 0,-1.07558 0,-1.79263 0,-3.58527 0,-5.37789 0,-0.395 -0.0408,-4.25905 0,-4.30233 0.23898,-0.25351 0.77495,0.25352 1.01393,0 0.23897,-0.25351 -0.23898,-0.82206 0,-1.07558 0.23897,-0.25351 0.77495,0.25352 1.01393,0 0.47798,-0.50703 -0.47796,-1.64412 0,-2.15116 0.239,-0.25352 0.67597,0 1.01396,0 0,-0.35852 -0.23898,-0.82206 0,-1.07558 0.47799,-0.50703 1.54989,0.50703 2.02788,0 0.23898,-0.25351 -0.23901,-0.82206 0,-1.07558 0.23898,-0.25352 0.71164,0.16034 1.01393,0 0.42752,-0.22675 0.58644,-0.84883 1.01396,-1.07558 0.30229,-0.16034 0.77495,0.25352 1.01392,0 0.23898,-0.25352 -0.23897,-0.82206 0,-1.07558 0.47799,-0.50703 1.5499,0.50703 2.02789,0 0.23898,-0.25351 -0.23897,-0.82206 0,-1.07558 0.47799,-0.50704 1.5499,0.50703 2.02789,0 0.23898,-0.25352 -0.23901,-0.82207 0,-1.07558 0.23898,-0.25352 1.01393,-0.35852 1.01393,0 0,0.35853 -0.77495,0.25351 -1.01393,0 -0.23901,-0.25352 0.23898,-0.82206 0,-1.07558 -0.47799,-0.50703 -1.5499,0.50703 -2.02789,0 -1.35191,-1.43411 1.68991,-1.07558 -1.01396,-1.07558"
       id="path4158"
       inkscape:connector-curvature="0" />
    <path
       style="fill:none;fill-rule:evenodd;stroke:#000000;stroke-width:0.3655071px;stroke-linecap:butt;stroke-linejoin:miter;stroke-opacity:1"
       d="m 163.2986,722.1778 c -10.21226,2.36071 -1.6483,-3.89965 -3.04181,-5.3779 -0.47799,-0.50703 -1.5499,0.50704 -2.02788,0 -0.478,-0.50703 0.30228,-1.50981 0,-2.15115 -0.21379,-0.45351 -0.80019,-0.62208 -1.01397,-1.07559 -0.30229,-0.64135 0.47799,-1.64412 0,-2.15116 -0.23898,-0.25351 -0.77495,0.25352 -1.01392,0 -0.23898,-0.25351 0.23897,-0.82206 0,-1.07558 -0.23898,-0.25351 -0.77496,0.25352 -1.01393,0 -0.23901,-0.25351 0.15114,-0.7549 0,-1.07558 -0.21378,-0.4535 -0.80019,-0.62207 -1.01396,-1.07558 -0.15115,-0.32067 0.23897,-0.82206 0,-1.07558 -0.23898,-0.25351 -0.77496,0.25352 -1.01393,0 -0.47798,-0.50703 0.47795,-1.64412 0,-2.15115 -0.23901,-0.25352 -0.77495,0.25351 -1.01396,0 -0.47795,-0.50704 0.47799,-1.64414 0,-2.15117 -0.23898,-0.25351 -0.77495,0.25352 -1.01393,0 -0.23897,-0.25351 0.23898,-0.82206 0,-1.07557 -0.23897,-0.25352 -0.77495,0.25351 -1.01396,0 -0.23898,-0.25352 0.23901,-0.82207 0,-1.07559 -0.23898,-0.25351 -0.77495,0.25352 -1.01392,0 -0.23898,-0.25351 0,-0.71705 0,-1.07558 0,-0.35852 0,-0.71705 0,-1.07558"
       id="path4160"
       inkscape:connector-curvature="0" />
    <path
       style="fill:none;fill-rule:evenodd;stroke:#000000;stroke-width:0.3655071px;stroke-linecap:butt;stroke-linejoin:miter;stroke-opacity:1"
       d="m 753.41239,575.89891 c 4.77973,0.30757 -1.19493,-4.11031 0,-5.3779 1.35188,-1.4341 1.01394,1.79264 1.01394,-1.07558 0,-0.26086 -0.0323,-3.19215 0,-3.22674 0.23902,-0.25351 0.77493,0.25352 1.01395,0 0.20724,-0.21989 -0.201,-2.80028 0,-3.22674 0.21371,-0.45351 0.80015,-0.62207 1.01394,-1.07558 0.40559,-0.86046 -0.4056,-2.36627 0,-3.22674 0.21379,-0.4535 0.80015,-0.62208 1.01394,-1.07558 0.27505,-0.58349 -0.27748,-4.00802 0,-4.30232 0.23894,-0.25352 0.77492,0.25352 1.01394,0 0.0324,-0.0346 0,-2.96588 0,-3.22674 0,-1.79263 0,-3.58527 0,-5.37789 0,-0.35853 -0.23902,-0.82207 0,-1.07559 0.23894,-0.25352 0.67593,0 1.01394,0"
       id="path4162"
       inkscape:connector-curvature="0" />
    <path
       style="fill:none;fill-rule:evenodd;stroke:#000000;stroke-width:0.3655071px;stroke-linecap:butt;stroke-linejoin:miter;stroke-opacity:1"
       d="m 729.07782,575.89891 c 0,-3.22673 0,-6.45348 0,-9.68022 0,-0.35852 0,-0.71705 0,-1.07558 0,-0.35853 0.23898,-0.82206 0,-1.07558 -0.239,-0.25351 -0.77494,0.25352 -1.01396,0 -0.47795,-0.50703 0.30232,-1.5098 0,-2.15116 -0.21374,-0.4535 -0.80018,-0.62207 -1.01392,-1.07558 -0.201,-0.42645 0.20729,-3.00685 0,-3.22674 -1.35192,-1.43411 -1.01397,1.79264 -1.01397,-1.07558"
       id="path4164"
       inkscape:connector-curvature="0" />
    <path
       style="fill:none;fill-rule:evenodd;stroke:#000000;stroke-width:0.3655071px;stroke-linecap:butt;stroke-linejoin:miter;stroke-opacity:1"
       d="m 670.26923,428.54444 c 1.01393,1.43411 2.02789,2.86821 3.04181,4.30232 0.33799,0 0.77495,-0.25352 1.01397,0 0.23897,0.25352 -0.23902,0.82207 0,1.07559 0.23897,0.25351 0.77494,-0.25352 1.01392,0 2.09787,2.22541 -3.20584,-0.087 1.01393,2.15115 0.30232,0.16034 0.77494,-0.25351 1.01396,0 0.50698,0.53779 -0.50699,2.68895 0,3.22675 0.23897,0.25351 0.77495,-0.25352 1.01393,0 0.239,0.25351 0,0.71705 0,1.07557 0,0.74811 -0.18334,4.98894 0,5.37791 0.21377,0.45349 0.80018,0.62207 1.01395,1.07557 0.13106,0.27809 0,5.69111 0,6.45348 0,5.01938 0,10.03875 0,15.05813 0,2.15115 0,4.30231 0,6.45347 0,0.35853 -0.23901,0.82207 0,1.07559 0.23898,0.25351 0.77496,-0.25352 1.01393,0 0.0326,0.0346 0,2.96588 0,3.22674 0,6.812 0,13.62401 0,20.43601 0,2.86822 0,5.73643 0,8.60464 0,0.35853 -0.23897,0.82207 0,1.07558 0.23898,0.25352 0.77495,-0.25351 1.01396,0 0.23898,0.25352 0,0.71706 0,1.07559 0,2.86821 0,5.73642 0,8.60464 0,9.68022 0,19.36044 0,29.04067 0,0.39499 0.0407,4.25903 0,4.30231 -0.23901,0.25351 -0.77498,-0.25352 -1.01396,0 -0.23897,0.25351 0,0.71705 0,1.07558 0,0.35853 0,0.71706 0,1.07559 0,2.86821 0,5.73642 0,8.60463 0,2.50969 0,5.01937 0,7.52906 0,0.35853 -0.23897,0.82206 0,1.07558 0.23898,0.25352 0.77495,-0.25352 1.01396,0 0.50695,0.53779 -0.50698,2.68895 0,3.22674 0.23898,0.25352 0.77495,-0.25352 1.01392,0 0.47799,0.50704 -0.47798,1.64413 0,2.15117 0.23898,0.25351 0.77496,-0.25352 1.01393,0 0.23902,0.25351 -0.23897,0.82206 0,1.07557 0.23902,0.25352 0.77495,-0.25351 1.01396,0 0.12481,0.13242 -0.12452,2.01906 0,2.15117 0.47799,0.50703 1.5499,-0.50704 2.02789,0 0.23898,0.25351 -0.23901,0.82206 0,1.07558 0.47795,0.50703 1.5499,-0.50704 2.02789,0 0.23898,0.25351 -0.23901,0.82206 0,1.07557 0.23898,0.25352 0.67594,0 1.01392,0 0.33799,0 0.67598,0 1.01393,0 0.24594,0 3.00923,-0.0346 3.04185,0 0.23898,0.25352 -0.23901,0.82207 0,1.07558 0.24398,0.25882 3.81176,-0.25881 4.05574,0 0.23901,0.25352 -0.23898,0.82207 0,1.07559 0.50698,0.53778 2.53487,-0.5378 3.04185,0 0.23897,0.25351 -0.23901,0.82206 0,1.07557 0.24398,0.25883 3.81176,-0.25882 4.05574,0 0.23901,0.25352 -0.23898,0.82207 0,1.07558 0.046,0.0487 4.59164,0 5.06974,0 0.33795,0 0.77495,-0.25351 1.01393,0 0.23897,0.25352 -0.23898,0.82207 0,1.07558 0.23897,0.25352 0.67597,0 1.01392,0 0.33798,0 0.67597,0 1.01396,0 0.47806,0 5.02374,-0.0487 5.0697,0 0.23898,0.25352 -0.23897,0.82207 0,1.07558 0.23898,0.25352 0.67598,0 1.01392,0 0.37238,0 4.01497,0.0432 4.05578,0 0.23898,-0.25351 -0.23897,-0.82206 0,-1.07558 0.47799,-0.50703 1.5499,0.50703 2.02789,0 0.23898,-0.25351 -0.23897,-0.82206 0,-1.07558 0.47799,-0.50703 1.5499,0.50704 2.02789,0 0.23898,-0.25351 -0.23901,-0.82206 0,-1.07558 0.50698,-0.53779 2.53483,0.53779 3.04181,0 0.23898,-0.25351 -0.23898,-0.82206 0,-1.07557 2.70386,0 -0.33799,0.35852 1.01396,-1.07559 0.47795,-0.50703 1.5499,0.50704 2.02785,0 0.23901,-0.25351 -0.23897,-0.82206 0,-1.07558 0.23901,-0.25351 0.77495,0.25352 1.01397,0 0.50697,-0.53779 -0.50699,-2.68895 0,-3.22674 0.23897,-0.25351 0.77494,0.25352 1.01392,0 0.0327,-0.0346 0,-2.96588 0,-3.22674"
       id="path4166"
       inkscape:connector-curvature="0" />
    <path
       style="fill:none;fill-rule:evenodd;stroke:#000000;stroke-width:0.3655071px;stroke-linecap:butt;stroke-linejoin:miter;stroke-opacity:1"
       d="m 166.34041,726.48013 c 6.12037,-0.54966 -0.20465,4.08521 1.01397,5.37789 0.23897,0.25352 0.77495,-0.25351 1.01392,0 0.23898,0.25352 0,0.71706 0,1.07559 0,1.79263 0,3.58527 0,5.37789 0,0.26085 0.0326,3.19217 0,3.22674 -0.23897,0.25353 -0.77495,-0.25351 -1.01392,0 -0.23901,0.25353 0,0.71706 0,1.07559 0,0.35854 0,0.71704 0,1.07557 0,2.86823 0,5.73643 0,8.60466 0,0.3585 0.23897,0.82207 0,1.07556 -0.23901,0.25351 -0.77495,-0.25349 -1.01397,0 -0.31395,0.33305 0.31397,5.04485 0,5.3779 -0.23897,0.25354 -0.77494,-0.2535 -1.01392,0 -0.31396,0.33305 0.31396,5.04485 0,5.3779 -0.23897,0.25353 -0.77495,-0.2535 -1.01396,0 -0.23898,0.25353 0,0.71707 0,1.0756 0,1.79263 0,3.58526 0,5.37789 0,0.35854 0.23901,0.82207 0,1.07557 -0.23898,0.25354 -0.77495,-0.2535 -1.01393,0 -0.35591,0.37754 0.3502,4.63496 0,5.37789 -0.21374,0.45352 -0.80018,0.62209 -1.01393,1.0756 -0.30232,0.64137 0.47796,1.64415 0,2.15116 -0.239,0.25354 -0.77498,-0.25354 -1.01396,0 -0.47799,0.50701 0.30229,1.50981 0,2.15119 -0.21374,0.45347 -0.80018,0.62207 -1.01392,1.07553 -0.15114,0.32065 0.23897,0.82205 0,1.0756 -0.23901,0.25354 -0.77495,-0.25355 -1.01396,0 -0.23898,0.25354 0.23901,0.82212 0,1.07559 -0.23898,0.25347 -0.77495,-0.25347 -1.01392,0 -0.23898,0.25347 0.23897,0.82206 0,1.0756 -0.23898,0.25354 -0.77496,-0.25354 -1.01397,0 -0.23898,0.25354 0.23901,0.82198 0,1.07552 -0.23898,0.25355 -0.77495,-0.25354 -1.01392,0 -0.23898,0.25355 0.23897,0.82213 0,1.0756 -0.47799,0.50701 -1.5499,-0.50701 -2.02789,0 -0.23898,0.25354 0.23897,0.82206 0,1.0756 -0.23898,0.25354 -0.77496,-0.25354 -1.01393,0 -0.23901,0.25354 0.23897,0.82205 0,1.07552 -0.47798,0.50709 -1.5499,-0.50701 -2.02789,0 -0.23897,0.25354 0.23898,0.82213 0,1.0756 -0.47798,0.50701 -1.5499,-0.50701 -2.02788,0 -0.23898,0.25354 0.23897,0.82213 0,1.0756 -0.47799,0.50708 -1.5499,-0.50701 -2.02789,0 -0.23898,0.25354 0.23898,0.82205 0,1.07552 -0.0326,0.0348 -2.79592,0 -3.04182,0 -2.02788,0 -4.05577,0 -6.08366,0 -0.33798,0 -0.77495,0.25354 -1.01393,0 -0.23897,-0.25347 0.23898,-0.82198 0,-1.07552 -0.47798,-0.50701 -1.42328,0.32065 -2.02788,0 -0.42753,-0.22677 -0.58644,-0.84883 -1.01393,-1.0756 -0.60461,-0.32065 -1.54994,0.50701 -2.02789,0 -0.23901,-0.25347 0.23898,-0.82206 0,-1.0756 -0.47798,-0.50701 -1.42327,0.32073 -2.02789,0 -3.36283,-3.56718 0.95595,0.50709 -2.02788,-1.07552 -0.42753,-0.22677 -0.58644,-0.84883 -1.01393,-1.0756 -0.60461,-0.32065 -1.54993,0.50701 -2.02789,0 -0.23901,-0.25347 0.23898,-0.82205 0,-1.0756 -0.47798,-0.50701 -1.54989,0.50702 -2.02788,0 -0.23898,-0.25354 0.23897,-0.82198 0,-1.07552 -0.50698,-0.53776 -2.53487,0.53776 -3.04181,0 -0.23902,-0.25354 0.23897,-0.82213 0,-1.0756 -0.50699,-0.53783 -2.53488,0.53784 -3.04185,0 -0.23898,-0.25347 0.23901,-0.82205 0,-1.07559 -0.24398,-0.2588 -3.81176,0.25886 -4.05574,0 -0.23902,-0.25355 0.23897,-0.82206 0,-1.0756 -0.47799,-0.50701 -1.54994,0.50708 -2.02789,0 -0.23902,-0.25347 0.23897,-0.82206 0,-1.07553 -0.47799,-0.50708 -1.42328,0.32066 -2.02789,0 -0.42752,-0.22676 -0.58644,-0.84883 -1.01396,-1.07559 -0.30229,-0.16037 -0.77495,0.25354 -1.01393,0 -0.23898,-0.25354 0.23898,-0.82206 0,-1.0756 -0.23898,-0.25354 -0.71164,0.16036 -1.01392,0 -0.42752,-0.22677 -0.58644,-0.84883 -1.01397,-1.0756 -1.39857,-0.74179 -0.90692,1.30258 -2.02788,-1.07556 -0.15114,-0.32066 0.23901,-0.82205 0,-1.07556 -0.47795,-0.50705 -1.5499,0.507 -2.02789,0 -0.23897,-0.25354 0.23901,-0.8221 0,-1.0756 -0.23897,-0.25351 -0.711643,0.16033 -1.013927,0 -0.427522,-0.22674 -0.586434,-0.84883 -1.013926,-1.07556 -0.302322,-0.16037 -0.774984,0.2535 -1.013963,0 0,-2.86824 0.33799,0.35849 -1.013925,-1.07561 -0.239008,-0.2535 0.238978,-0.82205 0,-1.07556 -0.477987,-0.50705 -1.549902,0.50704 -2.027888,0 0,-2.86824 0.33799,0.35853 -1.013955,-1.0756 -0.238979,-0.2535 0.239008,-0.82207 0,-1.07557 -0.238979,-0.2535 -0.6933,0.11339 -1.013934,0 -0.716958,-0.2535 -1.310922,-0.82206 -2.02788,-1.07556 -0.320634,-0.11339 -0.774955,0.2535 -1.013926,0 -0.239016,-0.25354 0.238971,-0.8221 0,-1.0756 -0.239016,-0.2535 -0.711641,0.16033 -1.013963,0 -0.427492,-0.22674 -0.586404,-0.84883 -1.013925,-1.07557 -0.302292,-0.16037 -0.862787,0.32066 -1.013963,0 -0.302292,-0.64136 0.477987,-1.64412 0,-2.15116 -0.477957,-0.50705 -1.351915,0 -2.027851,0 -0.33799,0 -0.774991,0.2535 -1.013963,0 -0.238978,-0.25354 0.238972,-0.82207 0,-1.0756 -0.238978,-0.2535 -0.711641,0.16036 -1.013925,0 -0.427529,-0.22674 -0.586441,-0.84883 -1.013963,-1.07557 -0.302292,-0.16033 -0.693292,0.11339 -1.013925,0 -0.716966,-0.2535 -1.31093,-0.82206 -2.027889,-1.07556 -0.320633,-0.11339 -0.862784,0.32066 -1.013927,0 -0.302322,-0.64137 0.302286,-1.50984 0,-2.15116 -0.151179,-0.32071 -0.693328,0.11334 -1.013961,0 -0.716964,-0.25355 -1.310925,-0.82207 -2.027889,-1.07561 -0.320633,-0.11335 -0.77495,0.25354 -1.013925,0 -0.238976,-0.2535 0.238975,-0.82206 0,-1.07556 -0.238976,-0.25354 -0.71164,0.16033 -1.013962,0 -0.427488,-0.22678 -0.586403,-0.84883 -1.013926,-1.07561 -0.302286,-0.16033 -0.73272,0.19888 -1.013926,0 -0.795427,-0.56249 -1.232496,-1.58862 -2.027888,-2.15112 -0.281241,-0.19889 -0.77495,0.2535 -1.013961,0 -0.238976,-0.25354 0.239011,-0.8221 0,-1.07561 -0.238976,-0.25349 -0.77495,0.25351 -1.013926,0 -0.238976,-0.25349 0.238976,-0.82205 0,-1.07556 -0.238976,-0.25354 -0.77495,0.25351 -1.013962,0 -0.238976,-0.25354 0.239012,-0.82206 0,-1.0756 -0.238976,-0.2535 -0.77495,0.25354 -1.013926,0 -0.238975,-0.2535 0.238976,-0.82206 0,-1.07556 -0.238975,-0.25354 -0.77495,0.2535 -1.013926,0 -0.239011,-0.25354 0.238976,-0.82206 0,-1.07561 -0.239011,-0.25349 -0.774985,0.25355 -1.013961,0 -0.238976,-0.25349 0.238976,-0.82206 0,-1.07556 -0.238976,-0.2535 -0.774951,0.2535 -1.013926,0 -0.239011,-0.2535 0.238975,-0.82206 0,-1.07557 -0.239011,-0.25354 -0.77495,0.25351 -1.013961,0 -0.238977,-0.25354 0.239011,-0.82209 0,-1.07559 -0.477953,-0.50705 -1.549901,0.50704 -2.027889,0 -0.238975,-0.25351 0.239012,-0.82206 0,-1.07557 -0.238975,-0.25354 -0.774949,0.25351 -1.013925,0 -0.238976,-0.25354 0.238976,-0.82206 0,-1.0756 -0.238976,-0.2535 -0.77495,0.25354 -1.013927,0 -0.239011,-0.2535 0.238977,-0.82206 0,-1.07557 -0.477987,-0.50703 -1.549936,0.50705 -2.027887,0 -0.239011,-0.25354 0.238976,-0.82206 0,-1.07559 -0.239011,-0.25351 -0.71164,0.16036 -1.013961,0 -0.427488,-0.22674 -0.586403,-0.84883 -1.013927,-1.07557 -0.302286,-0.16033 -0.774949,0.25351 -1.013961,0 -0.238976,-0.25351 0.239012,-0.82206 0,-1.07556 -0.238976,-0.25354 -0.71164,0.16033 -1.013926,0 -0.427523,-0.22678 -0.586438,-0.84887 -1.013926,-1.07561 -0.302323,-0.16033 -0.774987,0.25351 -1.013963,0 -0.238976,-0.2535 0.238976,-0.82206 0,-1.07556 -0.238976,-0.25354 -0.675939,0 -1.013926,0 0,-0.35853 0.238976,-0.82209 0,-1.0756 -0.477987,-0.507 -1.5499,0.50705 -2.027887,0 -0.238976,-0.25351 0.238976,-0.82206 0,-1.07556 -0.477988,-0.50705 -1.549901,0.507 -2.027887,0 -0.238977,-0.25354 0.238975,-0.82206 0,-1.07561 -0.477988,-0.50702 -1.549901,0.50704 -2.027889,0 -0.238975,-0.2535 0,-0.71703 0,-1.07556 -0.337987,0 -0.77495,0.25352 -1.013925,0 -0.239011,-0.25352 0.238975,-0.82207 0,-1.07559 -0.239011,-0.25351 -0.77495,0.25352 -1.013962,0 -0.238976,-0.25351 0.239012,-0.82206 0,-1.07558 -0.238976,-0.25351 -0.77495,0.25352 -1.013926,0 -0.238976,-0.25351 0.238976,-0.82205 0,-1.07557 -0.238976,-0.25352 -0.77495,0.25352 -1.013961,0 -0.238976,-0.25352 0.239011,-0.82207 0,-1.07559 -0.238976,-0.25351 -0.77495,0.25352 -1.013926,0 0,-2.86821 0.337987,0.35853 -1.013927,-1.07557 -0.477986,-0.50703 0.477952,-1.64413 0,-2.15117 -0.239011,-0.25351 -0.774985,0.25352 -1.013961,0 -0.238976,-0.25351 0,-0.71705 0,-1.07557 0,-2.5097 0,-5.01938 0,-7.52907 0,-2.86821 0.337987,0.35853 -1.013926,-1.07558 -0.04081,-0.0433 0,-3.90732 0,-4.30232 0,-2.8682 0,-5.73642 0,-8.60464 0,-0.4844 -0.154302,-2.8994 0,-3.22674 0.213744,-0.4535 0.800182,-0.62207 1.013926,-1.07558 0.302287,-0.64135 -0.302287,-1.50981 0,-2.15116 0.21378,-0.4535 0.800182,-0.62207 1.013961,-1.07558 0.35016,-0.74294 -0.355944,-5.00035 0,-5.37789 0.238976,-0.25352 0.774951,0.25351 1.013927,0 0.238976,-0.25352 0,-0.71706 0,-1.07559 0,-0.35853 0,-0.71705 0,-1.07558 0,-2.15116 0,-4.30232 0,-6.45348 0,-0.71705 0,-1.43411 0,-2.15116 0,-0.35852 -0.151143,-0.7549 0,-1.07558 0.213744,-0.4535 0.800182,-0.62207 1.013926,-1.07558 0.113632,-0.24107 0,-4.04673 0,-4.30232 0,-2.15116 0,-4.30232 0,-6.45348 0,-0.28616 -0.167433,-3.13793 0,-3.22674 0.604608,-0.32068 1.423315,0.32068 2.027887,0 0.138936,-0.0737 0,-3.18487 0,-4.30232 0,-5.73642 0,-11.47285 0,-17.20928 0,-2.86822 0,-5.73643 0,-8.60465 0,-0.35852 0.239012,-0.82205 0,-1.07557 -0.238976,-0.25351 -0.77495,0.25352 -1.013926,0 -0.238976,-0.25351 0,-0.71705 0,-1.07558 0,-0.35853 0,-0.71706 0,-1.07558 0,-5.3779 0,-10.7558 0,-16.13371 0,-1.79263 0,-3.58526 0,-5.3779 0,-0.35852 -0.238976,-0.82206 0,-1.07557 0.238976,-0.25352 0.77495,0.25351 1.013926,0 0.239012,-0.25352 0,-0.71706 0,-1.07558 0,-1.79264 0,-3.58527 0,-5.3779 0,-0.35853 -0.238976,-0.82207 0,-1.07558 0.239012,-0.25352 0.774951,0.25351 1.013962,0 0.243979,-0.25882 -0.24398,-4.04351 0,-4.30233 0.238975,-0.25351 0.77495,0.25352 1.013925,0 0.506982,-0.53779 -0.50698,-2.68895 0,-3.22674 0.238976,-0.25351 0.774951,0.25352 1.013962,0 0.477952,-0.50703 -0.302321,-1.5098 0,-2.15116 0.213744,-0.4535 0.800182,-0.62207 1.013927,-1.07558 0.18333,-0.38896 0,-4.62979 0,-5.3779 0,-0.76237 0.131092,-6.17538 0,-6.45347 -0.213745,-0.45351 -0.800183,-0.62209 -1.013927,-1.07559 -0.151178,-0.32068 0,-0.71705 0,-1.07558 0,-0.35853 0,-0.71705 0,-1.07557 0,-1.79264 0,-3.58527 0,-5.37791"
       id="path4168"
       inkscape:connector-curvature="0" />
    <text
       xml:space="preserve"
       style="font-style:normal;font-weight:normal;font-size:25.25982475px;line-height:125%;font-family:Sans;letter-spacing:0px;word-spacing:0px;fill:#000000;fill-opacity:1;stroke:none;stroke-width:1px;stroke-linecap:butt;stroke-linejoin:miter;stroke-opacity:1"
       x="20.291498"
       y="389.52747"
       id="text4170"
       sodipodi:linespacing="125%"
       transform="scale(0.68701318,1.4555761)"><tspan
         sodipodi:role="line"
         id="tspan4172"
         x="20.291498"
         y="389.52747">Internet</tspan><tspan
         sodipodi:role="line"
         x="20.291498"
         y="433.21716"
         id="tspan4174" /></text>
    <text
       xml:space="preserve"
       style="font-style:normal;font-weight:normal;font-size:14.62028408px;line-height:125%;font-family:Sans;letter-spacing:0px;word-spacing:0px;fill:#0000ff;fill-opacity:1;stroke:none;stroke-width:1px;stroke-linecap:butt;stroke-linejoin:miter;stroke-opacity:1"
       x="164.01172"
       y="691.78064"
       id="text4176"
       sodipodi:linespacing="125%"
       transform="scale(0.97092352,1.0299472)"><tspan
         sodipodi:role="line"
         id="tspan4178"
         x="164.01172"
         y="691.78064">wifi 路由器</tspan></text>
    <text
       xml:space="preserve"
       style="font-style:normal;font-weight:normal;font-size:9.64883327px;line-height:125%;font-family:Sans;letter-spacing:0px;word-spacing:0px;fill:#0000ff;fill-opacity:1;stroke:none;stroke-width:1px;stroke-linecap:butt;stroke-linejoin:miter;stroke-opacity:1"
       x="780.6734"
       y="521.09839"
       id="text4176-0"
       sodipodi:linespacing="125%"
       transform="scale(0.91957084,1.0874638)"><tspan
         sodipodi:role="line"
         id="tspan4178-6"
         x="780.6734"
         y="521.09839">wifi 路由器</tspan></text>
  </g>
</svg>
